<svg width="15" height="7" viewBox="0 0 15 7" fill="none" xmlns="http://www.w3.org/2000/svg">
<path d="M4.137 1.156C4.032 1.219 3.983 1.324 3.983 1.569V5.538C3.983 5.783 4.032 5.888 4.137 5.951C4.137 5.965 4.137 6 4.137 6H3.269C3.269 6 3.269 5.965 3.269 5.951C3.381 5.888 3.43 5.783 3.43 5.538V3.123H0.994V5.538C0.994 5.783 1.043 5.888 1.148 5.951C1.148 5.965 1.148 6 1.148 6H0.28C0.28 6 0.28 5.965 0.28 5.951C0.392 5.888 0.441 5.783 0.441 5.538V1.569C0.441 1.324 0.392 1.219 0.28 1.156C0.28 1.142 0.28 1.1 0.28 1.1H1.148C1.148 1.1 1.148 1.142 1.148 1.156C1.043 1.219 0.994 1.324 0.994 1.569V3.074H3.43V1.569C3.43 1.324 3.381 1.219 3.269 1.156C3.269 1.142 3.269 1.1 3.269 1.1H4.137C4.137 1.1 4.137 1.142 4.137 1.156ZM9.79902 1.926C10.065 2.388 9.69402 3.074 9.19702 3.389C8.86802 3.599 8.56702 3.585 8.32902 3.515C8.93102 4.019 8.83302 6.042 6.76102 6.042C5.59202 6.042 4.81502 5.356 4.71702 4.747C4.54202 3.655 5.51502 3.004 6.56502 3.27C5.99802 3.088 5.03902 2.836 5.10202 1.968C5.13702 1.471 5.46602 1.191 5.99102 1.023C6.51602 0.848 7.07602 0.897 7.87402 1.198L7.74102 1.919H7.69202C7.23002 1.142 6.55102 0.855 6.08202 1.051C5.79502 1.17 5.63402 1.513 5.63402 1.933C5.63402 2.542 6.09602 3.081 6.93602 3.382C6.93602 3.382 6.92902 3.403 6.91502 3.431C5.78802 3.018 5.17202 3.774 5.26302 4.782C5.31902 5.391 5.88602 5.965 6.79602 5.965C8.84702 5.965 8.91702 3.816 8.15402 3.452C7.97902 3.795 7.79002 4.131 7.51702 4.334C7.21602 4.551 6.83802 4.558 6.73302 4.32C6.57202 3.949 7.20202 3.592 7.64302 3.347L7.65702 3.389C7.21602 3.634 6.91502 3.907 6.99902 4.145C7.06902 4.348 7.32102 4.32 7.54502 4.187C7.83202 4.019 8.04902 3.536 8.28702 3.06C8.55302 2.528 8.73502 1.989 9.02202 1.786C9.33702 1.562 9.64502 1.66 9.79902 1.926ZM9.17602 3.361C9.62402 3.067 9.75002 2.5 9.52602 2.164C9.34402 1.898 9.12002 1.877 8.93102 2.01C8.74902 2.129 8.54602 2.647 8.33602 3.074C8.28702 3.179 8.23102 3.291 8.17502 3.403C8.37102 3.494 8.76302 3.627 9.17602 3.361ZM14.4489 5.951V6H13.3709V5.951C13.5529 5.769 13.4969 5.524 13.3009 5.013L12.9579 4.124H11.2219L11.0329 4.656C10.8089 5.293 10.7739 5.636 11.0679 5.951V6H10.2419V5.951C10.5429 5.636 10.7459 5.314 10.9769 4.656L12.0269 1.702L11.7959 1.1H12.3489L13.7139 4.656C14.0009 5.356 14.1829 5.636 14.4489 5.951ZM11.2429 4.068H12.9369L12.0549 1.779L11.2429 4.068Z" fill="#F5F5F5"/>
</svg>
